<?xml version="1.0" encoding="utf-8"?>
<svg version="1.1" xmlns:xlink="http://www.w3.org/1999/xlink" width="22px" height="20px" xmlns="http://www.w3.org/2000/svg">
  <g transform="matrix(1 0 0 1 -638 -443 )">
    <path d="M 7.39676339285714 9.70764119601329  C 7.70368303571429 9.37541528239203  7.85714285714286 8.97452934662237  7.85714285714286 8.50498338870432  C 7.85714285714286 8.03543743078627  7.70368303571429 7.63455149501661  7.39676339285714 7.30232558139535  C 7.08984375 6.97009966777409  6.71949404761905 6.80398671096345  6.28571428571429 6.80398671096345  C 5.85193452380952 6.80398671096345  5.48158482142857 6.97009966777409  5.17466517857143 7.30232558139535  C 4.86774553571429 7.63455149501661  4.71428571428571 8.03543743078627  4.71428571428571 8.50498338870432  C 4.71428571428571 8.97452934662237  4.86774553571429 9.37541528239203  5.17466517857143 9.70764119601329  C 5.48158482142857 10.0398671096345  5.85193452380952 10.2059800664452  6.28571428571429 10.2059800664452  C 6.71949404761905 10.2059800664452  7.08984375 10.0398671096345  7.39676339285714 9.70764119601329  Z M 12.1110491071429 9.70764119601329  C 12.41796875 9.37541528239203  12.5714285714286 8.97452934662237  12.5714285714286 8.50498338870432  C 12.5714285714286 8.03543743078627  12.41796875 7.63455149501661  12.1110491071429 7.30232558139535  C 11.8041294642857 6.97009966777409  11.4337797619048 6.80398671096345  11 6.80398671096345  C 10.5662202380952 6.80398671096345  10.1958705357143 6.97009966777409  9.88895089285714 7.30232558139535  C 9.58203125 7.63455149501661  9.42857142857143 8.03543743078627  9.42857142857143 8.50498338870432  C 9.42857142857143 8.97452934662237  9.58203125 9.37541528239203  9.88895089285714 9.70764119601329  C 10.1958705357143 10.0398671096345  10.5662202380952 10.2059800664452  11 10.2059800664452  C 11.4337797619048 10.2059800664452  11.8041294642857 10.0398671096345  12.1110491071429 9.70764119601329  Z M 16.8253348214286 9.70764119601329  C 17.1322544642857 9.37541528239203  17.2857142857143 8.97452934662237  17.2857142857143 8.50498338870432  C 17.2857142857143 8.03543743078627  17.1322544642857 7.63455149501661  16.8253348214286 7.30232558139535  C 16.5184151785714 6.97009966777409  16.1480654761905 6.80398671096345  15.7142857142857 6.80398671096345  C 15.280505952381 6.80398671096345  14.91015625 6.97009966777409  14.6032366071429 7.30232558139535  C 14.2963169642857 7.63455149501661  14.1428571428571 8.03543743078627  14.1428571428571 8.50498338870432  C 14.1428571428571 8.97452934662237  14.2963169642857 9.37541528239203  14.6032366071429 9.70764119601329  C 14.91015625 10.0398671096345  15.280505952381 10.2059800664452  15.7142857142857 10.2059800664452  C 16.1480654761905 10.2059800664452  16.5184151785714 10.0398671096345  16.8253348214286 9.70764119601329  Z M 20.5267857142857 4.23255813953488  C 21.5089285714286 5.53931339977852  22 6.96345514950166  22 8.50498338870432  C 22 10.046511627907  21.5089285714286 11.4706533776301  20.5267857142857 12.7774086378738  C 19.5446428571429 14.0841638981174  18.2105654761905 15.1162790697674  16.5245535714286 15.8737541528239  C 14.8385416666667 16.6312292358804  12.9970238095238 17.0099667774086  11 17.0099667774086  C 10.0997023809524 17.0099667774086  9.23623511904762 16.9302325581395  8.40959821428572 16.7707641196013  C 6.9936755952381 18.3034330011074  5.21354166666667 19.3178294573643  3.06919642857143 19.8139534883721  C 2.64360119047619 19.9025470653378  2.29166666666667 19.9601328903655  2.01339285714286 19.9867109634551  C 1.91517857142857 19.9955703211517  1.82514880952381 19.968992248062  1.74330357142857 19.906976744186  C 1.66145833333333 19.8449612403101  1.60825892857143 19.765227021041  1.58370535714286 19.6677740863787  C 1.55096726190476 19.5348837209302  1.6328125 19.3709856035437  1.82924107142857 19.1760797342193  C 1.87016369047619 19.1317829457364  1.9663318452381 19.0365448504983  2.11774553571429 18.890365448505  C 2.26915922619048 18.7441860465116  2.37351190476191 18.640088593577  2.43080357142857 18.578073089701  C 2.48809523809524 18.516057585825  2.58426339285714 18.4031007751938  2.71930803571429 18.2392026578073  C 2.85435267857143 18.0753045404208  2.95256696428571 17.9357696566999  3.01395089285714 17.8205980066445  C 3.07533482142857 17.7054263565891  3.15922619047619 17.5415282392027  3.265625 17.328903654485  C 3.37202380952381 17.1162790697674  3.45386904761905 16.9036544850498  3.51116071428571 16.6910299003322  C 3.56845238095238 16.4784053156146  3.62779017857143 16.2236987818383  3.68917410714286 15.9269102990033  C 3.75055803571429 15.6301218161683  3.80171130952381 15.3089700996678  3.84263392857143 14.9634551495017  C 2.64769345238095 14.1661129568106  1.7085193452381 13.2070874861573  1.02511160714286 12.0863787375415  C 0.341703869047619 10.9656699889258  0 9.7718715393134  0 8.50498338870432  C 0 6.96345514950166  0.491071428571429 5.53931339977852  1.47321428571429 4.23255813953488  C 2.45535714285714 2.92580287929125  3.78943452380952 1.8936877076412  5.47544642857143 1.13621262458472  C 7.16145833333333 0.37873754152824  9.00297619047619 0  11 0  C 12.9970238095238 0  14.8385416666667 0.37873754152824  16.5245535714286 1.13621262458472  C 18.2105654761905 1.8936877076412  19.5446428571429 2.92580287929125  20.5267857142857 4.23255813953488  Z " fill-rule="nonzero" fill="#555555" stroke="none" transform="matrix(1 0 0 1 638 443 )" />
  </g>
</svg>