<?xml version="1.0" encoding="utf-8"?>
<svg version="1.1" xmlns:xlink="http://www.w3.org/1999/xlink" width="26px" height="21px" xmlns="http://www.w3.org/2000/svg">
  <g transform="matrix(1 0 0 1 -635 -341 )">
    <path d="M 17.7444196428571 11.771484375  C 17.9185267857143 12.0904947916667  18.1941964285714 12.25  18.5714285714286 12.25  L 22.9966517857143 12.25  C 22.9482886904762 12.3046875  22.8999255952381 12.3525390625  22.8515625 12.3935546875  C 22.8031994047619 12.4345703125  22.7596726190476 12.46875  22.7209821428571 12.49609375  L 22.6774553571429 12.55078125  L 13.6383928571429 20.75390625  C 13.4642857142857 20.91796875  13.2514880952381 21  13 21  C 12.7485119047619 21  12.5357142857143 20.91796875  12.3616071428571 20.75390625  L 3.30803571428571 12.5234375  C 3.25967261904762 12.5052083333333  3.15811011904762 12.4140625  3.00334821428571 12.25  L 8.35714285714286 12.25  C 8.56994047619048 12.25  8.76097470238095 12.1884765625  8.93024553571429 12.0654296875  C 9.09951636904762 11.9423828125  9.20833333333333 11.78515625  9.25669642857143 11.59375  L 10.2723214285714 7.751953125  L 13.0290178571429 16.87109375  C 13.0870535714286 17.0533854166667  13.1982886904762 17.2037760416667  13.3627232142857 17.322265625  C 13.5271577380952 17.4407552083333  13.7157738095238 17.5  13.9285714285714 17.5  C 14.1316964285714 17.5  14.3154761904762 17.4407552083333  14.4799107142857 17.322265625  C 14.6443452380952 17.2037760416667  14.7555803571429 17.0533854166667  14.8136160714286 16.87109375  L 16.9319196428571 10.240234375  L 17.7444196428571 11.771484375  Z M 24.1573660714286 1.6953125  C 25.3857886904762 2.82552083333333  26 4.39322916666667  26 6.3984375  C 26 7.72005208333333  25.5018601190476 9.08723958333333  24.5055803571429 10.5  L 19.1517857142857 10.5  L 17.5412946428571 7.478515625  C 17.4639136904762 7.32356770833333  17.340587797619 7.20052083333333  17.1713169642857 7.109375  C 17.0020461309524 7.01822916666667  16.8255208333333 6.98177083333333  16.6417410714286 7  C 16.2064732142857 7.04557291666667  15.9356398809524 7.25520833333333  15.8292410714286 7.62890625  L 13.9575892857143 13.5078125  L 11.1138392857143 4.12890625  C 11.0558035714286 3.94661458333333  10.942150297619 3.79622395833333  10.7728794642857 3.677734375  C 10.6036086309524 3.55924479166667  10.4125744047619 3.5  10.1997767857143 3.5  C 9.98697916666667 3.5  9.79836309523809 3.5615234375  9.63392857142857 3.6845703125  C 9.46949404761905 3.8076171875  9.36309523809524 3.96484375  9.31473214285714 4.15625  L 7.63169642857143 10.5  L 1.49441964285714 10.5  C 0.498139880952381 9.08723958333333  0 7.72005208333333  0 6.3984375  C 0 4.39322916666667  0.614211309523809 2.82552083333333  1.84263392857143 1.6953125  C 3.07105654761905 0.565104166666666  4.76860119047619 0  6.93526785714286 0  C 7.53497023809524 0  8.14676339285714 0.097981770833332  8.77064732142857 0.293945312500001  C 9.39453125 0.489908854166665  9.97488839285714 0.754231770833332  10.51171875 1.0869140625  C 11.0485491071429 1.41959635416667  11.5104166666667 1.73177083333333  11.8973214285714 2.0234375  C 12.2842261904762 2.31510416666666  12.6517857142857 2.625  13 2.953125  C 13.3482142857143 2.625  13.7157738095238 2.31510416666666  14.1026785714286 2.0234375  C 14.4895833333333 1.73177083333333  14.9514508928571 1.41959635416667  15.48828125 1.0869140625  C 16.0251116071429 0.754231770833332  16.60546875 0.489908854166665  17.2293526785714 0.293945312500001  C 17.8532366071429 0.097981770833332  18.4650297619048 0  19.0647321428571 0  C 21.2313988095238 0  22.928943452381 0.565104166666666  24.1573660714286 1.6953125  Z " fill-rule="nonzero" fill="#555555" stroke="none" transform="matrix(1 0 0 1 635 341 )" />
  </g>
</svg>