<?xml version="1.0" encoding="utf-8"?>
<svg version="1.1" xmlns:xlink="http://www.w3.org/1999/xlink" width="25px" height="20px" xmlns="http://www.w3.org/2000/svg">
  <g transform="matrix(1 0 0 1 -635 -294 )">
    <path d="M 17.7315848214286 13.2161458333333  C 17.8152901785714 13.1380208333333  17.8571428571429 13.0381944444444  17.8571428571429 12.9166666666667  L 17.8571428571429 10.4166666666667  C 17.8571428571429 10.2951388888889  17.8152901785714 10.1953125  17.7315848214286 10.1171875  C 17.6478794642857 10.0390625  17.5409226190476 10  17.4107142857143 10  L 14.2857142857143 10  L 14.2857142857143 7.08333333333333  C 14.2857142857143 6.96180555555556  14.2438616071429 6.86197916666667  14.16015625 6.78385416666667  C 14.0764508928571 6.70572916666667  13.969494047619 6.66666666666667  13.8392857142857 6.66666666666667  L 11.1607142857143 6.66666666666667  C 11.030505952381 6.66666666666667  10.9235491071429 6.70572916666667  10.83984375 6.78385416666667  C 10.7561383928571 6.86197916666667  10.7142857142857 6.96180555555556  10.7142857142857 7.08333333333333  L 10.7142857142857 10  L 7.58928571428571 10  C 7.45907738095238 10  7.35212053571429 10.0390625  7.26841517857143 10.1171875  C 7.18470982142857 10.1953125  7.14285714285714 10.2951388888889  7.14285714285714 10.4166666666667  L 7.14285714285714 12.9166666666667  C 7.14285714285714 13.0381944444444  7.18470982142857 13.1380208333333  7.26841517857143 13.2161458333333  C 7.35212053571429 13.2942708333333  7.45907738095238 13.3333333333333  7.58928571428571 13.3333333333333  L 10.7142857142857 13.3333333333333  L 10.7142857142857 16.25  C 10.7142857142857 16.3715277777778  10.7561383928571 16.4713541666667  10.83984375 16.5494791666667  C 10.9235491071429 16.6276041666667  11.030505952381 16.6666666666667  11.1607142857143 16.6666666666667  L 13.8392857142857 16.6666666666667  C 13.969494047619 16.6666666666667  14.0764508928571 16.6276041666667  14.16015625 16.5494791666667  C 14.2438616071429 16.4713541666667  14.2857142857143 16.3715277777778  14.2857142857143 16.25  L 14.2857142857143 13.3333333333333  L 17.4107142857143 13.3333333333333  C 17.5409226190476 13.3333333333333  17.6478794642857 13.2942708333333  17.7315848214286 13.2161458333333  Z M 8.92857142857143 1.66666666666667  L 8.92857142857143 3.33333333333333  L 16.0714285714286 3.33333333333333  L 16.0714285714286 1.66666666666667  L 8.92857142857143 1.66666666666667  Z M 3.125 3.33333333333333  L 4 3.33333333333333  L 4 20  L 3.125 20  C 2.26934523809524 20  1.53459821428571 19.7135416666667  0.920758928571429 19.140625  C 0.306919642857143 18.5677083333333  0 17.8819444444444  0 17.0833333333333  L 0 6.25  C 0 5.45138888888889  0.306919642857143 4.765625  0.920758928571429 4.19270833333333  C 1.53459821428571 3.61979166666667  2.26934523809524 3.33333333333333  3.125 3.33333333333333  Z M 17.8571428571429 3.33333333333333  L 20 3.33333333333333  L 20 20  L 5 20  L 5 3.33333333333333  L 7.14285714285714 3.33333333333333  L 7.14285714285714 1.25  C 7.14285714285714 0.902777777777777  7.27306547619048 0.607638888888886  7.53348214285714 0.364583333333333  C 7.79389880952381 0.121527777777777  8.11011904761905 0  8.48214285714286 0  L 16.5178571428571 0  C 16.889880952381 0  17.2061011904762 0.121527777777777  17.4665178571429 0.364583333333333  C 17.7269345238095 0.607638888888886  17.8571428571429 0.902777777777777  17.8571428571429 1.25  L 17.8571428571429 3.33333333333333  Z M 24.0792410714286 4.19270833333333  C 24.6930803571429 4.765625  25 5.45138888888889  25 6.25  L 25 17.0833333333333  C 25 17.8819444444444  24.6930803571429 18.5677083333333  24.0792410714286 19.140625  C 23.4654017857143 19.7135416666667  22.7306547619048 20  21.875 20  L 21 20  L 21 3.33333333333333  L 21.875 3.33333333333333  C 22.7306547619048 3.33333333333333  23.4654017857143 3.61979166666667  24.0792410714286 4.19270833333333  Z " fill-rule="nonzero" fill="#555555" stroke="none" transform="matrix(1 0 0 1 635 294 )" />
  </g>
</svg>