<?xml version="1.0" encoding="utf-8"?>
<svg version="1.1" xmlns:xlink="http://www.w3.org/1999/xlink" width="25px" height="24px" xmlns="http://www.w3.org/2000/svg">
  <g transform="matrix(1 0 0 1 -635 -387 )">
    <path d="M 16.5201822916667 19.859375  C 16.6178385416667 19.765625  16.6666666666667 19.6458333333333  16.6666666666667 19.5  L 16.6666666666667 17  C 16.6666666666667 16.8541666666667  16.6178385416667 16.734375  16.5201822916667 16.640625  C 16.4225260416667 16.546875  16.2977430555556 16.5  16.1458333333333 16.5  L 14.5833333333333 16.5  L 14.5833333333333 8.5  C 14.5833333333333 8.35416666666667  14.5345052083333 8.234375  14.4368489583333 8.140625  C 14.3391927083333 8.046875  14.2144097222222 8  14.0625 8  L 8.85416666666667 8  C 8.70225694444445 8  8.57747395833333 8.046875  8.47981770833333 8.140625  C 8.38216145833333 8.234375  8.33333333333333 8.35416666666667  8.33333333333333 8.5  L 8.33333333333333 11  C 8.33333333333333 11.1458333333333  8.38216145833333 11.265625  8.47981770833333 11.359375  C 8.57747395833333 11.453125  8.70225694444445 11.5  8.85416666666667 11.5  L 10.4166666666667 11.5  L 10.4166666666667 16.5  L 8.85416666666667 16.5  C 8.70225694444445 16.5  8.57747395833333 16.546875  8.47981770833333 16.640625  C 8.38216145833333 16.734375  8.33333333333333 16.8541666666667  8.33333333333333 17  L 8.33333333333333 19.5  C 8.33333333333333 19.6458333333333  8.38216145833333 19.765625  8.47981770833333 19.859375  C 8.57747395833333 19.953125  8.70225694444445 20  8.85416666666667 20  L 16.1458333333333 20  C 16.2977430555556 20  16.4225260416667 19.953125  16.5201822916667 19.859375  Z M 14.4368489583333 5.859375  C 14.5345052083333 5.765625  14.5833333333333 5.64583333333333  14.5833333333333 5.5  L 14.5833333333333 3  C 14.5833333333333 2.85416666666667  14.5345052083333 2.734375  14.4368489583333 2.640625  C 14.3391927083333 2.546875  14.2144097222222 2.5  14.0625 2.5  L 10.9375 2.5  C 10.7855902777778 2.5  10.6608072916667 2.546875  10.5631510416667 2.640625  C 10.4654947916667 2.734375  10.4166666666667 2.85416666666667  10.4166666666667 3  L 10.4166666666667 5.5  C 10.4166666666667 5.64583333333333  10.4654947916667 5.765625  10.5631510416667 5.859375  C 10.6608072916667 5.953125  10.7855902777778 6  10.9375 6  L 14.0625 6  C 14.2144097222222 6  14.3391927083333 5.953125  14.4368489583333 5.859375  Z M 23.3235677083333 5.9765625  C 24.4411892361111 7.81510416666666  25 9.82291666666666  25 12  C 25 14.1770833333333  24.4411892361111 16.1848958333333  23.3235677083333 18.0234375  C 22.2059461805556 19.8619791666667  20.6895616319444 21.3177083333333  18.7744140625 22.390625  C 16.8592664930556 23.4635416666667  14.7677951388889 24  12.5 24  C 10.2322048611111 24  8.14073350694444 23.4635416666667  6.2255859375 22.390625  C 4.31043836805556 21.3177083333333  2.79405381944444 19.8619791666667  1.67643229166667 18.0234375  C 0.558810763888889 16.1848958333333  0 14.1770833333333  0 12  C 0 9.82291666666666  0.558810763888889 7.81510416666666  1.67643229166667 5.9765625  C 2.79405381944444 4.13802083333333  4.31043836805556 2.68229166666666  6.2255859375 1.609375  C 8.14073350694444 0.536458333333331  10.2322048611111 0  12.5 0  C 14.7677951388889 0  16.8592664930556 0.536458333333331  18.7744140625 1.609375  C 20.6895616319444 2.68229166666666  22.2059461805556 4.13802083333333  23.3235677083333 5.9765625  Z " fill-rule="nonzero" fill="#555555" stroke="none" transform="matrix(1 0 0 1 635 387 )" />
  </g>
</svg>